<svg width="360" height="16" xmlns="http://www.w3.org/2000/svg" xmlns:xlink="http://www.w3.org/1999/xlink">
    <symbol id="icon" width="16" height="16">
        <path fill-rule="evenodd" clip-rule="evenodd" d="M1 4.667c0-.392.317-.709.708-.709h6a.708.708 0 1 1 0 1.417h-6A.708.708 0 0 1 1 4.667zM12.334 4.667c0-.392.317-.709.708-.709h1.333a.708.708 0 0 1 0 1.417h-1.333a.708.708 0 0 1-.708-.708z"/>
        <path fill-rule="evenodd" clip-rule="evenodd" d="M11.625 4.667a1.25 1.25 0 1 0-2.5 0 1.25 1.25 0 0 0 2.5 0zm1.417 0a2.667 2.667 0 1 0-5.334 0 2.667 2.667 0 0 0 5.334 0zM5 11.333c0-.39.317-.708.708-.708h8.667a.708.708 0 0 1 0 1.417H5.708A.708.708 0 0 1 5 11.333z"/>
        <path fill-rule="evenodd" clip-rule="evenodd" d="M3.708 10.083a1.25 1.25 0 1 0 0 2.5 1.25 1.25 0 0 0 0-2.5zm-2.667 1.25a2.667 2.667 0 1 1 5.334 0 2.667 2.667 0 0 1-5.333 0z"/>
    </symbol>
    <use x="0" xlink:href="#icon" fill="#3d3e42"/>
    <use x="18" xlink:href="#icon" fill="#3d3e42" fill-opacity="0.7" />
    <use x="36" xlink:href="#icon" fill="#ff0000"/>
    <use x="54" xlink:href="#icon" fill="#0f8fee"/>
    <use x="72" xlink:href="#icon" fill="#8cb900"/>    
</svg>